<mxfile host="Electron" modified="2023-07-01T10:07:48.557Z" agent="Mozilla/5.0 (Windows NT 10.0; Win64; x64) AppleWebKit/537.36 (KHTML, like Gecko) draw.io/21.5.0 Chrome/112.0.5615.204 Electron/24.5.1 Safari/537.36" etag="mtgPzaIrBijro2xPfGFt" version="21.5.0" type="device">
  <diagram name="第 1 页" id="-5Eo2MPcMec6CBDZF8cL">
    <mxGraphModel dx="566" dy="855" grid="1" gridSize="10" guides="1" tooltips="1" connect="1" arrows="1" fold="1" page="1" pageScale="1" pageWidth="1169" pageHeight="827" math="0" shadow="0">
      <root>
        <mxCell id="0" />
        <mxCell id="1" parent="0" />
        <mxCell id="aqEMlm_nCdYBNIzLByCw-15" value="" style="edgeStyle=orthogonalEdgeStyle;rounded=0;orthogonalLoop=1;jettySize=auto;html=1;" edge="1" parent="1" source="aqEMlm_nCdYBNIzLByCw-1" target="aqEMlm_nCdYBNIzLByCw-2">
          <mxGeometry relative="1" as="geometry" />
        </mxCell>
        <mxCell id="aqEMlm_nCdYBNIzLByCw-24" value="" style="edgeStyle=orthogonalEdgeStyle;rounded=0;orthogonalLoop=1;jettySize=auto;html=1;" edge="1" parent="1" source="aqEMlm_nCdYBNIzLByCw-1" target="aqEMlm_nCdYBNIzLByCw-3">
          <mxGeometry relative="1" as="geometry" />
        </mxCell>
        <mxCell id="aqEMlm_nCdYBNIzLByCw-1" value="设置mstatus.MIE为0&lt;br&gt;（禁止中断）" style="rounded=1;whiteSpace=wrap;html=1;" vertex="1" parent="1">
          <mxGeometry x="90" y="280" width="200" height="40" as="geometry" />
        </mxCell>
        <mxCell id="aqEMlm_nCdYBNIzLByCw-2" value="设置mstatus.MPP为01&lt;br&gt;（原始特权等级）" style="rounded=1;whiteSpace=wrap;html=1;" vertex="1" parent="1">
          <mxGeometry x="90" y="360" width="200" height="40" as="geometry" />
        </mxCell>
        <mxCell id="aqEMlm_nCdYBNIzLByCw-3" value="设置mstatus.MPIE为1&lt;br&gt;(原始中断使能)" style="rounded=1;whiteSpace=wrap;html=1;" vertex="1" parent="1">
          <mxGeometry x="90" y="440" width="200" height="40" as="geometry" />
        </mxCell>
        <mxCell id="aqEMlm_nCdYBNIzLByCw-6" value="设置mtval寄存器为0或由软件设置" style="rounded=1;whiteSpace=wrap;html=1;" vertex="1" parent="1">
          <mxGeometry x="90" y="520" width="200" height="40" as="geometry" />
        </mxCell>
        <mxCell id="aqEMlm_nCdYBNIzLByCw-7" value="进入Machine mode" style="rounded=1;whiteSpace=wrap;html=1;" vertex="1" parent="1">
          <mxGeometry x="90" y="680" width="200" height="40" as="geometry" />
        </mxCell>
        <mxCell id="aqEMlm_nCdYBNIzLByCw-8" value="" style="endArrow=classic;html=1;rounded=0;" edge="1" parent="1">
          <mxGeometry width="50" height="50" relative="1" as="geometry">
            <mxPoint x="189.7" y="320" as="sourcePoint" />
            <mxPoint x="190" y="360" as="targetPoint" />
          </mxGeometry>
        </mxCell>
        <mxCell id="aqEMlm_nCdYBNIzLByCw-9" value="" style="endArrow=classic;html=1;rounded=0;" edge="1" parent="1">
          <mxGeometry width="50" height="50" relative="1" as="geometry">
            <mxPoint x="189.84999999999997" y="400" as="sourcePoint" />
            <mxPoint x="190.14999999999998" y="440" as="targetPoint" />
          </mxGeometry>
        </mxCell>
        <mxCell id="aqEMlm_nCdYBNIzLByCw-10" value="" style="endArrow=classic;html=1;rounded=0;" edge="1" parent="1">
          <mxGeometry width="50" height="50" relative="1" as="geometry">
            <mxPoint x="189.84999999999997" y="480" as="sourcePoint" />
            <mxPoint x="190.14999999999998" y="520" as="targetPoint" />
          </mxGeometry>
        </mxCell>
        <mxCell id="aqEMlm_nCdYBNIzLByCw-13" value="" style="endArrow=classic;html=1;rounded=0;" edge="1" parent="1">
          <mxGeometry width="50" height="50" relative="1" as="geometry">
            <mxPoint x="189.64" y="560" as="sourcePoint" />
            <mxPoint x="189.94" y="600" as="targetPoint" />
          </mxGeometry>
        </mxCell>
        <mxCell id="aqEMlm_nCdYBNIzLByCw-14" value="Trap发生" style="rounded=1;whiteSpace=wrap;html=1;" vertex="1" parent="1">
          <mxGeometry x="90" y="40" width="200" height="40" as="geometry" />
        </mxCell>
        <mxCell id="aqEMlm_nCdYBNIzLByCw-16" value="" style="endArrow=classic;html=1;rounded=0;" edge="1" parent="1">
          <mxGeometry width="50" height="50" relative="1" as="geometry">
            <mxPoint x="189.64" y="80" as="sourcePoint" />
            <mxPoint x="189.94" y="120" as="targetPoint" />
          </mxGeometry>
        </mxCell>
        <mxCell id="aqEMlm_nCdYBNIzLByCw-17" value="设置mepc为当前pc值&lt;br&gt;(mret跳转地址)" style="rounded=1;whiteSpace=wrap;html=1;" vertex="1" parent="1">
          <mxGeometry x="90" y="120" width="200" height="40" as="geometry" />
        </mxCell>
        <mxCell id="aqEMlm_nCdYBNIzLByCw-23" value="设置mcause寄存器&lt;br&gt;(异常/中断错误码)" style="rounded=1;whiteSpace=wrap;html=1;" vertex="1" parent="1">
          <mxGeometry x="90" y="200" width="200" height="40" as="geometry" />
        </mxCell>
        <mxCell id="aqEMlm_nCdYBNIzLByCw-25" value="" style="endArrow=classic;html=1;rounded=0;" edge="1" parent="1">
          <mxGeometry width="50" height="50" relative="1" as="geometry">
            <mxPoint x="189.64" y="160" as="sourcePoint" />
            <mxPoint x="189.94" y="200" as="targetPoint" />
          </mxGeometry>
        </mxCell>
        <mxCell id="aqEMlm_nCdYBNIzLByCw-26" value="" style="endArrow=classic;html=1;rounded=0;" edge="1" parent="1">
          <mxGeometry width="50" height="50" relative="1" as="geometry">
            <mxPoint x="189.64" y="240" as="sourcePoint" />
            <mxPoint x="189.94" y="280" as="targetPoint" />
          </mxGeometry>
        </mxCell>
        <mxCell id="aqEMlm_nCdYBNIzLByCw-27" value="读取mtvec寄存器，赋值给PC寄存器" style="rounded=1;whiteSpace=wrap;html=1;" vertex="1" parent="1">
          <mxGeometry x="90" y="600" width="200" height="40" as="geometry" />
        </mxCell>
        <mxCell id="aqEMlm_nCdYBNIzLByCw-28" value="" style="endArrow=classic;html=1;rounded=0;" edge="1" parent="1">
          <mxGeometry width="50" height="50" relative="1" as="geometry">
            <mxPoint x="189.64" y="640" as="sourcePoint" />
            <mxPoint x="189.94" y="680" as="targetPoint" />
          </mxGeometry>
        </mxCell>
      </root>
    </mxGraphModel>
  </diagram>
</mxfile>
